<svg width="1000" height="640" viewBox="0 0 1000 640" xmlns="http://www.w3.org/2000/svg">
  <defs>
    <filter id="glow" x="-50%" y="-50%" width="200%" height="200%">
      <feGaussianBlur stdDeviation="2.2" result="blur"/>
      <feMerge>
        <feMergeNode in="blur"/>
        <feMergeNode in="SourceGraphic"/>
      </feMerge>
    </filter>
    <linearGradient id="bg" x1="0" y1="0" x2="0" y2="1">
      <stop offset="0%" stop-color="#0a0f0a"/>
      <stop offset="100%" stop-color="#020402"/>
    </linearGradient>
  </defs>

  <!-- fundo total -->
  <rect x="0" y="0" width="1000" height="640" fill="#000000"/>

  <!-- coluna de chuva de codigo (esquerda) -->
  <g font-family="monospace" font-size="14" fill="#00FF41" opacity="0.35">
    <text x="15" y="0"><animate attributeName="y" values="-20;660" dur="4.2s" repeatCount="indefinite"/>0 1 0 0 1 1 0 1 0 0 1 0 1 1 0 0 1 0 1 0 1</text>
    <text x="35" y="0"><animate attributeName="y" values="-20;660" dur="3.1s" begin="0.6s" repeatCount="indefinite"/>1 1 0 1 0 0 1 0 1 1 0 1 0 0 1 1 0 1 0 0 1</text>
  </g>
  <!-- coluna de chuva de codigo (direita) -->
  <g font-family="monospace" font-size="14" fill="#00FF41" opacity="0.35">
    <text x="950" y="0"><animate attributeName="y" values="-20;660" dur="3.6s" begin="1.1s" repeatCount="indefinite"/>0 1 1 0 0 1 0 1 0 1 1 0 1 0 0 1 0 1 1 0 0</text>
    <text x="970" y="0"><animate attributeName="y" values="-20;660" dur="4.8s" begin="0.3s" repeatCount="indefinite"/>1 0 0 1 1 0 1 0 0 1 0 1 1 0 1 0 0 1 1 0 1</text>
  </g>

  <!-- janela do terminal -->
  <rect x="60" y="30" width="880" height="580" rx="14" fill="url(#bg)" stroke="#00FF41" stroke-width="2" filter="url(#glow)"/>

  <!-- barra de titulo -->
  <path d="M60,44 a14,14 0 0 1 14,-14 h852 a14,14 0 0 1 14,14 v36 h-880 z" fill="#101a10"/>
  <circle cx="90" cy="62" r="7" fill="#ff5f56"/>
  <circle cx="112" cy="62" r="7" fill="#ffbd2e"/>
  <circle cx="134" cy="62" r="7" fill="#27c93f"/>
  <text x="500" y="67" font-family="monospace" font-size="15" fill="#00FF41" text-anchor="middle" filter="url(#glow)">root@kali: ~/dale-martinez</text>

  <!-- indicador live -->
  <circle cx="905" cy="62" r="5" fill="#00FF41">
    <animate attributeName="opacity" values="1;0.2;1" dur="1.4s" repeatCount="indefinite"/>
  </circle>
  <text x="918" y="67" font-family="monospace" font-size="12" fill="#00FF41">LIVE</text>

  <!-- corpo do terminal -->
  <g font-family="monospace" font-size="16" fill="#00FF41" filter="url(#glow)">
    <text x="90" y="115">┌──(root💀kali)-[~/dale-martinez]</text>
    <text x="90" y="139">└─$ cat about.md</text>

    <text x="90" y="177" fill="#c7ffd8">[+] Name ................ Dale Martinez</text>
    <text x="90" y="201" fill="#c7ffd8">[+] Class ................ Backend Dev / Automation</text>
    <text x="90" y="225" fill="#c7ffd8">[+] Objective ............ Cybersecurity</text>
    <text x="90" y="249" fill="#c7ffd8">[+] Weapons of Choice .... JavaScript, Python, Node.js</text>
    <text x="90" y="273" fill="#c7ffd8">[+] Known Exploits ....... Discord Bots, Web Backends, Scripts</text>
    <text x="90" y="297" fill="#c7ffd8">[+] Status ............... [ONLINE] 100% uptime</text>

    <text x="90" y="334">└─$ cat skills.scan</text>
  </g>

  <!-- barras de skill -->
  <g font-family="monospace" font-size="14" fill="#c7ffd8">
    <!-- JavaScript -->
    <text x="90" y="372">JavaScript</text>
    <rect x="230" y="360" width="560" height="16" rx="4" fill="#0d1f0d" stroke="#0d5c1f"/>
    <rect x="230" y="360" height="16" rx="4" fill="#00FF41" filter="url(#glow)">
      <animate attributeName="width" values="0;448" dur="1.6s" fill="freeze"/>
    </rect>
    <text x="800" y="372" fill="#00FF41">80%</text>

    <!-- Python -->
    <text x="90" y="402">Python</text>
    <rect x="230" y="390" width="560" height="16" rx="4" fill="#0d1f0d" stroke="#0d5c1f"/>
    <rect x="230" y="390" height="16" rx="4" fill="#00FF41" filter="url(#glow)">
      <animate attributeName="width" values="0;392" dur="1.6s" begin="0.15s" fill="freeze"/>
    </rect>
    <text x="800" y="402" fill="#00FF41">70%</text>

    <!-- Node.js -->
    <text x="90" y="432">Node.js</text>
    <rect x="230" y="420" width="560" height="16" rx="4" fill="#0d1f0d" stroke="#0d5c1f"/>
    <rect x="230" y="420" height="16" rx="4" fill="#00FF41" filter="url(#glow)">
      <animate attributeName="width" values="0;420" dur="1.6s" begin="0.3s" fill="freeze"/>
    </rect>
    <text x="800" y="432" fill="#00FF41">75%</text>

    <!-- SQL / NoSQL -->
    <text x="90" y="462">SQL / NoSQL</text>
    <rect x="230" y="450" width="560" height="16" rx="4" fill="#0d1f0d" stroke="#0d5c1f"/>
    <rect x="230" y="450" height="16" rx="4" fill="#00FF41" filter="url(#glow)">
      <animate attributeName="width" values="0;364" dur="1.6s" begin="0.45s" fill="freeze"/>
    </rect>
    <text x="800" y="462" fill="#00FF41">65%</text>

    <!-- Cybersecurity -->
    <text x="90" y="492">Cybersecurity</text>
    <rect x="230" y="480" width="560" height="16" rx="4" fill="#0d1f0d" stroke="#0d5c1f"/>
    <rect x="230" y="480" height="16" rx="4" fill="#ffbd2e" filter="url(#glow)">
      <animate attributeName="width" values="0;224" dur="1.6s" begin="0.6s" fill="freeze"/>
    </rect>
    <text x="800" y="492" fill="#ffbd2e">40% [ IN PROGRESS ]</text>
  </g>

  <!-- prompt final com cursor piscando -->
  <g font-family="monospace" font-size="16" fill="#00FF41" filter="url(#glow)">
    <text x="90" y="540">└─$</text>
    <rect x="130" y="524" width="11" height="18" fill="#00FF41">
      <animate attributeName="opacity" values="1;1;0;0;1" keyTimes="0;0.4;0.4;0.9;1" dur="1s" repeatCount="indefinite"/>
    </rect>
  </g>

  <text x="500" y="600" font-family="monospace" font-size="12" fill="#0d5c1f" text-anchor="middle">[ session encrypted // AES-256 // no logs kept ]</text>
</svg>
